# xmcd
#
# Track frame offsets:
#	150
#	20342
#	46546
#	81005
#	110425
#	140887
#	172015
#	202146
#	236554
#	267263
#	293387
#
# Disc length: 4263 seconds
#
# Revision: 0
# Processed by: cddbd v1.5.2PL0 Copyright (c) Steve Scherf et al.
# Submitted via: EasyCDDAExtractor 2010.6.0.0
#
DISCID=9510a50b
DTITLE=Various Artist - Dance Classics Vol. 27 and 28
DYEAR=2010
DGENRE=Dance
TTITLE0=Salt 'n Pepa - Push It (12" Version)
TTITLE1=Heavy D and The Boyz - We Got Our Own Thing (Extended Version)
TTITLE2=Soul II Soul - Back To Life (Club Mix)
TTITLE3=Milli Vanilli - Girl You Know It's True (Super Club Mix)
TTITLE4=Donna Allen - Joy and Pain (Dance Version)
TTITLE5=Paula Abdul - Straight Up (Extended Version)
TTITLE6=Pebbles - Girlfriend (Extended Version)
TTITLE7=Womack and Womack - Teardrops (Extended Remix)
TTITLE8=Will Downing - A Love Supreme (Extended Vocal Mix)
TTITLE9=The Chimes - Heaven (12" Version)
TTITLE10=The Jets - Rocket 2 You (Extended Version)
EXTD=
EXTT0=
EXTT1=
EXTT2=
EXTT3=
EXTT4=
EXTT5=
EXTT6=
EXTT7=
EXTT8=
EXTT9=
EXTT10=
PLAYORDER=
